<svg xmlns="http://www.w3.org/2000/svg" viewBox="0 0 64 64"><rect width="64" height="64" fill="#ffffff"/><path fill="#1983be" fill-rule="evenodd" d="M28.2 17.37c-1.01.1-2.08.34-3.77.83-.93.27-3.22 1.42-4.46 2.23-2.66 1.76-5.21 5.37-6.26 8.86-.37 1.24-.77 4.18-.63 4.56.09.22 1.05.24 9.19.24 10.67 0 9.58.23 9.58-2v-1.43l-.58-.59a2.4 2.4 0 0 0-1.38-.75c-3.35-.72-4.44-1.85-4.28-4.45a4.1 4.1 0 0 1 5.5-3.7c.37.13 1.3.74 2.08 1.35 3.65 2.88 7.16 4.67 10.23 5.23 2.48.45 7.84.1 7.84-.51 0-.06-1.09-.74-2.42-1.51l-6.24-3.64c-6.3-3.7-7.13-4.07-10.11-4.58a13 13 0 0 0-4.3-.14m5.75 12.68c-.08.16-.17.85-.19 1.53-.06 2.03.26 2.34 3.3 3.26 2.2.68 2.92 1.61 2.93 3.8.01 1.57-.25 2.2-1.24 3.1-1.01.92-1.44 1.08-2.87 1.07-1.48 0-1.6-.05-3.67-1.65-5.07-3.93-8.6-5.35-13.12-5.31-2.28.02-4.79.39-4.76.7 0 .15 1.05.83 2.6 1.68 1.87 1.03 8.79 5.04 9.48 5.5a15.7 15.7 0 0 0 9.84 2.71c8.48-.28 14.9-6.04 16.16-14.49.14-.93.21-1.81.16-1.95-.08-.22-.9-.24-9.28-.24-8.95 0-9.18 0-9.34.29"/></svg>
