<svg xmlns="http://www.w3.org/2000/svg" viewBox="0 0 64 64"><rect width="64" height="64" fill="#ffffff"/><path fill="#2b5d98" fill-rule="evenodd" d="M15.37 18.19c-.06.06-.07 3.35-.07 14.43v14.36h1.47l.01-4.05.02-4.05.17-.02c.2-.02.44.24.44.47q0 .3.68.38c.36.05.4.02.68-.38.16-.22.28-.2.56.1l.23.25h1.57l.33-.26c.29-.23.35-.25.68-.25.2 0 .4-.04.44-.08.12-.12.1-.53-.05-.66q-.25-.22 0-.45c.12-.1.23-.12.93-.1l.79.02.28-.26.28-.26h.75c.84 0 .9.02 1.32.42.24.23.35.29.67.35.66.11.77.17 1.07.56a4 4 0 0 1 .7 1.28c.13.33.27.54.8 1.14.66.73.7.79.75 1.27.02.14.09.46.16.7.32 1.06.33 1.1.34 2.51v1.37h3.44l-.03-.28-.1-1.36a7 7 0 0 0-.47-2.73l-.17-.55.1-.63.2-1.23c.15-.97.28-1.42.5-1.83.37-.66.62-.67.62-.01q-.02.73.38.47c.21-.13.26-.1.26.2 0 .54.46.53.57 0 .04-.2.06-.22.34-.23.16-.01.36 0 .43.05.13.07.17.28.06.35-.1.07-.07.26.07.39.1.1.24.12.51.12.43 0 .5.04.52.35.03.33.3.35.7.04.16-.12.37-.23.48-.24q.39-.05.03-.53c-.23-.29-.24-.37-.06-.62q.14-.2.3-.17c.16.02.18.05.2.36q.02.6.55.5l.44-.08c.21-.03.23-.02.36.24.1.2.13.33.1.52-.03.22-.02.27.16.44.28.25.44.22.6-.11.19-.38.27-.45.54-.5q.5-.08.43-.51-.08-.52.6-.57c.32-.01.35 0 .45.18.09.16.15.2.37.21.3.02.4-.06.76-.58.25-.35.44-.47.99-.56.88-.15.9-.15 1.17.03q.43.29.65.2c.11-.04.11-.05-.07-.73l-.1-.4.16-.18c.2-.21.2-.27.04-.43-.19-.16-.15-.38.06-.36.09.02.31.03.5.04.58.03.53-.47.53 5.47v5.26H51V32.62c0-11.08-.02-14.37-.08-14.43-.11-.11-35.45-.11-35.56 0m1.47 1.42a36 36 0 0 0-.06 3.89l.02 3.8h.38c.28 0 .46.04.64.14.32.18.33.18.67-.05.16-.11.36-.19.48-.19s.32-.06.45-.13c.14-.07.32-.13.4-.13q.14 0 .32-.27c.2-.29.35-.32.9-.2.18.03.23 0 .49-.26.32-.33.34-.34.66-.16q.4.21.66.06c.17-.1.1-.18-.25-.33-.38-.16-.46-.26-.46-.64 0-.33.1-.44.4-.44q.28-.01.4-.38.09-.34.33-.32c.24 0 .93.25 1.2.43.43.3.61.05.27-.4-.22-.29-.3-.62-.17-.7.04-.02.32 0 .62.03.67.08.74.04.48-.29-.25-.3-.25-.32.02-.58a.8.8 0 0 1 .54-.25c.49-.07.53-.17.2-.48-.3-.27-.3-.4-.06-.59.16-.12.17-.12.48.02.34.14.42.14 1.15-.03a3 3 0 0 1 1.28-.06c.05.02.16.14.22.28.2.39.63.6.89.44.09-.06.17-.04.43.12q.66.4 1 .15c.27-.2.48-.18.8.12.2.19.33.25.48.25.25 0 .35.07 1.05.66q.98.81.99.1c0-.14-.07-.23-.3-.39-.28-.2-.42-.45-.3-.56.06-.06.93-.25 1.15-.25.17 0 .65.34.73.53q.07.14 0 .5c-.1.56.12.77.58.53q.3-.15.09-.54c-.28-.49.24-.92.6-.49q.2.24.36-.1c.09-.16.13-.19.27-.15.67.14.87.16 1.27.13.51-.05.64.04.8.53.04.13.17.33.3.45.17.16.21.24.18.36q-.05.15.12.35c.09.1.16.22.16.26 0 .18-.22.47-.42.55q-.37.15-.07.3c.08.03.2.12.27.18s.23.13.35.14q.22.01.3.16c.1.23.14.24.3.08.22-.2.21-.28-.06-.62q-.37-.46 0-.47.17-.02.4-.21c.28-.25.67-.36.76-.22.03.04.06.18.06.3v.23l.35-.02q.96-.02.68.7c-.06.14.17.25.54.25.22 0 .27-.03.33-.18.13-.33.16-.37.35-.37.17 0 .18.02.2.28q.05.48.34.23c.21-.19.38.06.38.55 0 .35.01.38.17.46.4.19.18.66-.43.96-.3.16-.4.35-.24.49.1.08.75-.06 1-.22a3 3 0 0 1 1.3-.02c.1.05.12.13.12.43 0 .62-.12.73-.6.61-.15-.03-.2-.01-.3.1q-.1.13-.38.18-.53.09-.3.43c.1.14.15.16.43.16.19 0 .42.05.56.12.13.07.37.14.52.16.33.04.58.27.58.53 0 .23.24.36.57.3.15-.02.28-.06.3-.09.04-.07.04-11.19 0-11.26-.07-.1-32.58-.08-32.67.03m-.03 10.64c-.07.07-.05 4.04.02 4.09.04.02.25-.02.49-.1.59-.18.76-.17.87.05.16.34.63.2.63-.2 0-.11.05-.32.12-.46.08-.15.13-.38.13-.56 0-.27.03-.35.23-.57.2-.23.23-.28.19-.5q-.05-.27.03-.35a.4.4 0 0 0 .05-.24q-.04-.3-.62-.04l-.33.14-.15-.14c-.18-.17-.24-.17-.39-.01-.15.17-.23.16-.4-.02a.6.6 0 0 1-.14-.4c0-.32-.56-.86-.73-.69m13.56 2.66c-.3.48-.25.73.23.96.12.05.47.33.79.6.31.28.69.56.83.63s.32.23.39.35c.24.41.79.95 1.1 1.06.28.11.29.11.43-.03.4-.36.55-1.52.32-2.4-.13-.54-.5-.9-.85-.84-.13.03-.45.07-.7.1q-.46.05-.64.18c-.48.35-1.27.07-1.53-.54q-.16-.37-.37-.07M28.05 34q-.23.13-.21.32c0 .36-.39.56-.67.34l-.23-.09c-.14 0-.93.79-1 .98-.11.4-.44.48-.67.17-.18-.25-.29-.24-.42.03-.1.22-.1.23.07.48.2.3.44.39 1.06.39.57 0 .76.06 1.24.43.41.32.43.32.98.37.82.06.86.07 1.28.41.33.27.41.38.54.72a3.8 3.8 0 0 0 1.75 2.07c.54.29.57.27.84-.55.1-.3.3-.83.47-1.18.38-.8.42-.94.3-1.2a16 16 0 0 0-3.05-3.17 5 5 0 0 0-.8-.63c-.18-.05-.35.07-.35.24 0 .24-.2.22-.4-.03-.24-.27-.42-.3-.73-.1m8.59.7q-.23.22-.52.03-.52-.39-.63.64c-.02.25-.11.62-.2.83-.3.7-.27 1.06.07.84.11-.07.31-.1.69-.1.29 0 .76-.05 1.04-.1.83-.15.9-.14 1.47.26.28.2.55.35.59.35.1 0 .4-.37.4-.49 0-.1-.01-.1-.41-.19-.22-.05-.28-.1-.45-.4-.25-.45-.41-.54-.79-.44-.34.1-.44 0-.51-.44-.06-.34-.4-.92-.55-.92q-.1.01-.2.13"/></svg>
