<svg xmlns="http://www.w3.org/2000/svg" viewBox="0 0 64 64"><rect width="64" height="64" fill="#000000"/><path fill="#fff" d="M21.14 20.78c1.08.87 1.48.8 3.5.67l19.03-1.14c.4 0 .06-.4-.07-.47l-3.16-2.29a3.8 3.8 0 0 0-2.96-.87l-18.43 1.34c-.67.07-.8.4-.53.68zm1.14 4.43v20.03c0 1.07.54 1.48 1.75 1.4l20.91-1.2c1.22-.07 1.35-.8 1.35-1.68V23.87c0-.87-.33-1.34-1.08-1.28l-21.85 1.28c-.8.07-1.08.47-1.08 1.34m20.65 1.08c.13.6 0 1.2-.6 1.28l-1.01.2v14.78q-1.34.72-2.36.74c-1.08 0-1.35-.34-2.15-1.35L30.2 31.6v10l2.1.48s0 1.21-1.69 1.21l-4.64.27c-.13-.27 0-.94.47-1.08l1.21-.33V28.9l-1.68-.14c-.13-.6.2-1.47 1.15-1.54l4.97-.34 6.86 10.49V28.1l-1.75-.2c-.13-.74.4-1.28 1.08-1.34zM17.5 16.2l19.16-1.41c2.36-.2 2.96-.07 4.44 1l6.12 4.3c1 .75 1.35.95 1.35 1.75v23.59c0 1.48-.54 2.35-2.42 2.48L23.9 49.27c-1.41.07-2.09-.14-2.83-1.08l-4.5-5.84c-.81-1.08-1.15-1.88-1.15-2.83V18.56c0-1.2.54-2.22 2.09-2.35"/></svg>
