<svg xmlns="http://www.w3.org/2000/svg" viewBox="0 0 64 64"><rect width="64" height="64" fill="#ffffff"/><path fill="#1DCF9F" d="M32.22 13.11a18 18 0 0 0-10.7 3.47 18 18 0 0 0-6.55 9.12.33.33 0 0 0 .17.4l.15.03h6.92a.3.3 0 0 0 .3-.18 11 11 0 0 1 4.14-4.3 11 11 0 0 1 5.8-1.48 10.9 10.9 0 0 1 10.6 10.42 10.8 10.8 0 0 1-2.13 6.85 11 11 0 0 1-5.94 4.04 11 11 0 0 1-7.19-.54 11 11 0 0 1-5.28-4.87.3.3 0 0 0-.3-.18H15.3a.34.34 0 0 0-.32.43 18 18 0 0 0 5.34 8.17 18 18 0 0 0 8.84 4.17c3.28.55 6.64.19 9.73-1.05a18 18 0 0 0 7.74-5.96 17.8 17.8 0 0 0 1.6-18.67 18 18 0 0 0-6.6-7.18 18 18 0 0 0-9.4-2.69"/><path fill="#210F60" fill-rule="evenodd" d="M21.96 34.39h-8.49a.4.4 0 0 1-.33-.23l-.02-.14V28.2a.4.4 0 0 1 .22-.34l.13-.03h8.5a.4.4 0 0 1 .32.23l.03.14V34a.4.4 0 0 1-.22.35z" clip-rule="evenodd"/></svg>
