<svg xmlns="http://www.w3.org/2000/svg" viewBox="0 0 64 64"><rect width="64" height="64" fill="#ffffff"/><path fill="#3b5f8f" fill-rule="evenodd" d="M26.4 12.47c0 .26-.67.57-1.49.69-.45.06-1 .23-1.2.38-.21.15-.6.31-.86.37s-.66.24-.88.41c-.23.17-.57.35-.76.41-.18.06-.53.26-.77.46s-.77.57-1.2.82c-1.21.73-4.58 4.2-4.58 4.72 0 .09-.16.31-.35.49-.35.33-.42.95-.12 1.04.08.03.62-.51 1.22-1.2 1.11-1.28 3.9-3.8 4.22-3.8.1 0 .41-.19.7-.42s.6-.4.72-.4.45-.16.73-.36.77-.41 1.1-.49c.32-.07.72-.25.88-.4.21-.2.6-.32 1.3-.4.55-.06 1.3-.25 1.68-.43 1.03-.48 6.42-.49 7.18-.01.27.17.88.36 1.41.44q.94.13 1.23.4c.17.16.61.38.99.5.38.1.8.32.93.47.14.15.33.27.42.27.1 0 .35.15.56.33.22.17.58.42.8.53.86.44 4.03 3.78 4.03 4.24 0 .07.18.34.4.6s.42.53.42.62c0 .1.18.44.4.77s.42.76.42.95.16.58.36.87c.28.4.38.76.46 1.64.06.62.2 1.5.33 1.94a8 8 0 0 1 0 3.54c-.13.46-.27 1.31-.33 1.9-.08.78-.2 1.2-.45 1.57-.19.28-.38.75-.42 1.04-.05.3-.23.7-.41.89s-.38.5-.43.7c-.12.38-1.32 1.82-2.25 2.68l-1.06 1c-.24.22-.52.4-.62.4s-.33.16-.5.34-.47.37-.67.42-.63.27-.97.49-.79.4-1.01.4c-.23 0-.65.16-.94.36-.47.32-.69.37-2.3.47-.98.06-1.95.14-2.15.18s-1.49 0-2.86-.1c-2.25-.17-2.54-.22-2.93-.5a3 3 0 0 0-1.11-.43 2 2 0 0 1-1.03-.44c-.2-.18-.5-.38-.7-.43-.3-.1-.69-.37-1.5-1.06-.29-.24-.59-1.65-.48-2.23q.16-.87 1.23-.88c.3 0 .83-.13 1.16-.3.55-.25.94-.3 3.49-.37 2.8-.09 2.88-.1 3.49-.46q.62-.37 1.19-.37c.43 0 .67-.1 1.03-.4.26-.23.55-.42.66-.42.52 0 2.48-1.84 2.64-2.48.05-.2.27-.52.49-.73q.4-.39.4-.83t.36-.88c.46-.54.62-1.86.27-2.16-.19-.15-.29-.13-.64.18-.24.2-.54.35-.67.35s-.54.16-.91.36c-.9.49-1.81.58-7.5.73a47 47 0 0 0-5.6.32c-.44.11-1.21.24-1.7.3-.55.05-1.1.2-1.46.42-.31.18-.69.33-.83.33s-.5.18-.78.4a2 2 0 0 1-.64.42c-.51 0-2.65 2.6-2.84 3.45-.07.33-.22.77-.34 1-.35.66-.28 2.43.12 3.26.18.38.37.9.42 1.18s.26.73.48 1.01c.23.28.4.56.4.62 0 .22 1.77 2.58 1.93 2.58.07 0 .22.19.33.41.12.23.3.41.39.41s.38.19.64.4c.26.23.55.41.64.42.1 0 .37.18.61.4.25.2.6.43.8.5.18.05.5.23.7.4s.6.35.88.4.7.22.9.37.74.33 1.17.39c.98.14 1.23.24 1.4.56.13.25.38.26 4.74.26h4.6l.28-.36c.24-.3.44-.37 1.2-.45q.91-.09 1.31-.39c.23-.16.66-.35.96-.42s.74-.28.97-.48c.24-.2.55-.36.7-.36.16 0 .5-.17.74-.37l1.05-.83a19 19 0 0 0 4.3-4.28l.86-1.12c.22-.3.4-.65.4-.78 0-.14.18-.46.4-.7.2-.25.42-.68.46-.97s.23-.7.41-.9c.24-.28.35-.64.42-1.24q.1-.84.4-1.28c.3-.42.3-.52.34-4.57l.05-4.15-.36-.67a6 6 0 0 1-.46-1.49 2 2 0 0 0-.4-1.12 2 2 0 0 1-.38-.85c-.05-.3-.27-.75-.49-1s-.39-.56-.39-.7-.18-.49-.4-.78l-.79-1.05a20 20 0 0 0-4.4-4.4c-.3-.22-.74-.54-.95-.71-.22-.17-.6-.38-.85-.47a3 3 0 0 1-.8-.45 2 2 0 0 0-.86-.4 3 3 0 0 1-1-.43 2 2 0 0 0-1.17-.33c-.57 0-.74-.07-1.09-.41l-.4-.41h-4.64c-2.92 0-4.63.05-4.63.13m13.34 8.47c-.34.3-.7.46-1.21.54-.4.07-.95.22-1.22.33-.97.41-2.65.5-7.77.41-5.25-.1-7.76.03-8.89.44-.33.12-.99.27-1.46.34-.48.07-1.12.27-1.44.45-.3.18-.74.37-.96.42s-.58.24-.8.42c-.22.19-.47.34-.56.34-.24 0-2.02 1.75-2.5 2.46a4 4 0 0 0-.53 1.16c-.06.32-.26.69-.5.9l-.38.36v7.42l.3-.2a4.5 4.5 0 0 0 1.2-1.75c0-.13.18-.44.4-.69.2-.25.48-.64.6-.88a8 8 0 0 1 2.55-2.24c.34-.16.71-.38.83-.48.2-.18.95-.41 3-.94.45-.12 1.81-.23 3.54-.28 7.17-.2 10.93-.59 11.89-1.24.27-.18.55-.33.62-.33.46 0 2.92-2.44 2.92-2.88 0-.06.19-.4.41-.76.23-.35.41-.82.41-1.04a4 4 0 0 1 .35-1.19c.62-1.36.18-1.95-.8-1.1m-26.3 1.7c-.21.27-.13.7.13.7.23 0 .36-.58.17-.77q-.13-.12-.3.07"/></svg>
